<?xml version="1.0" encoding="utf-8"?>
<svg xmlns="http://www.w3.org/2000/svg" viewBox="0 0 500 500">
  <g transform="matrix(2.077164, 0, 0, 2.07248, -188.744751, -191.612747)">
    <path style="fill: rgb(0, 87, 167);" d="M 112.79 256.828 C 127.992 226.42 155.98 198.979 196.755 174.506 C 221.878 159.428 251 156.201 284.121 164.827 C 315.575 173.019 330.331 200.09 317.097 243.095 C 310.289 265.218 272.47 283.487 225.286 260.187 C 183.297 239.452 154.087 235.804 112.79 256.828 Z"/>
    <path style="fill: rgb(0, 87, 167);" d="M 101.639 231.271 C 96.758 188.307 107.497 150.19 133.858 116.918 C 142.983 105.4 156.871 100.6 175.522 102.516 C 187.354 103.732 194.44 113.285 196.781 131.175 C 198.166 141.756 184.385 156.365 155.44 175 C 134.176 188.69 116.242 207.447 101.639 231.271 Z"/>
    <path style="fill: rgb(0, 87, 167);" d="M 104.03 292.101 C 140.936 267.918 173.954 262.253 203.081 275.103 C 228.48 286.308 238.308 299.526 232.566 314.756 C 227.44 328.352 212.968 327.051 189.149 310.852 C 165.197 294.562 136.824 288.312 104.03 292.101 Z"/>
  </g>
</svg>