<?xml version="1.0" encoding="utf-8"?>
<svg xmlns="http://www.w3.org/2000/svg" viewBox="0 0 500 500">
  <path style="paint-order: fill; stroke: rgb(0, 87, 167); stroke-width: 10px; stroke-linejoin: round; fill: rgb(203, 203, 203);" d="M 79.47 407.737 C 141.273 426.049 179.011 402.188 205.259 381.598 C 206.649 383.866 208.223 385.967 210.526 387.375 C 223.436 395.266 236.882 383.699 242.605 371.22 C 243.817 371.283 245.032 371.336 246.254 371.368 C 263.943 371.836 281.151 370.856 298.655 368.389 C 301.385 368.006 304.389 368.212 307.349 368.193 C 317.449 391.836 309.985 448.453 343.74 412.526 C 349.085 406.838 351.179 404.132 354.506 396.906 C 359.219 386.681 361.956 375.56 364.117 364.542 C 366.413 352.834 368.958 340.748 370.303 328.664 C 387.208 320.345 402.16 311.605 415.157 302.446 C 414.255 312.283 409.698 325.376 414.087 331.66 C 421.495 342.265 445.734 340.353 451.696 329.239 C 457.666 318.108 456.907 288.882 449.584 272.263 C 476.429 241.982 485.503 207.88 476.81 169.952 C 440.061 9.632 188.513 -14.895 90.401 62.046 C 39.57 101.908 16.264 143.571 20.486 187.025 C 20.908 196.029 22.222 205.148 22.222 213.855 C 22.222 215.832 22.19 219.583 22.703 222.956 C 21.427 238.228 22.682 253.762 35.534 246.595 C 37.418 245.544 38.316 243.13 39.127 240.647 C 45.209 250.955 52.744 261.359 61.728 271.858 C 61.803 279.918 61.353 287.883 59.381 294.986 C 56.757 304.443 46.059 320.046 52.533 330.274 C 61.54 344.503 88.3 348.989 95.418 332.659 C 97.741 327.329 99.17 318.961 99.866 309.657 C 105.214 314.272 110.832 318.904 116.72 323.555 C 198.417 375.924 50.571 399.176 79.47 407.737 Z M 335.467 440.474 C 324.071 440.474 314.833 449.327 314.833 460.238 C 314.833 471.149 324.071 480 335.467 480 C 346.864 480 356.102 471.149 356.102 460.238 C 356.102 449.327 346.864 440.474 335.467 440.474 Z M 434.277 376.121 C 434.277 391.028 426.084 403.618 428.07 419.72 C 430.048 435.752 456.834 439.847 461.727 424.209 C 469.392 399.701 452.173 392.571 444.184 374.888 L 434.277 376.121 Z M 50.441 369.209 C 42.393 379.205 33.696 401.095 37.8 414.651 C 43.882 434.739 54.622 402.369 54.806 398.657 C 55.034 394.108 54.806 389.477 54.806 384.921 L 50.441 369.209 Z M 219.303 413.328 C 212.591 416.587 201.531 436.377 208.034 443.922 C 215.436 452.51 225.857 448.895 227.6 438.469 C 228.241 434.635 228.013 430.708 228.013 426.819 C 228.013 420.425 223.016 415.895 222.784 409.591 L 219.303 413.328 Z"/>
</svg>