<?xml version="1.0" encoding="utf-8"?>
<svg id="svg2" viewBox="0 0 500 500" xmlns="http://www.w3.org/2000/svg">
  <desc>Source: openclipart.org/detail/209545</desc>
  <path d="M 308.499 21.275 C 314.479 19.835 321.833 19.334 326.779 21.275 C 331.218 23.018 334.244 26.281 337.325 31.198 C 341.346 37.615 345.683 50.488 347.168 58.676 C 348.396 65.447 348.433 70.347 347.168 76.996 C 346.259 81.775 342.852 88.396 340.3 94.021 C 340.214 99.241 340.061 104.14 339.881 108.036 C 339.965 108.12 340.052 108.205 340.137 108.292 C 341.802 109.967 345.282 109.047 347.168 112.108 C 348.751 114.677 350.94 120.398 352.343 126.432 C 354.008 123.143 356.431 120.14 358.329 118.374 C 360.524 116.332 362.363 115.739 365.36 115.321 C 369.354 114.764 376.236 114.91 380.828 116.848 C 385.362 118.761 390.335 122.663 392.78 126.771 C 395.084 130.641 396.207 135.81 395.592 140.51 C 394.913 145.706 392.015 153.094 387.858 156.54 C 383.501 160.152 375.292 162.227 369.578 161.119 C 363.799 159.998 356.541 154.813 353.407 149.67 C 352.548 148.259 351.868 146.586 351.36 144.791 C 346.078 150.325 331.338 151.246 328.887 157.906 C 328.318 159.454 328.044 161.382 328.023 163.517 C 330.654 166.252 333.479 168.845 334.567 170.106 C 335.677 171.392 335.82 170.515 336.676 172.396 C 337.894 175.072 340.55 182.554 342.977 191.083 C 343.799 191.345 344.656 191.577 345.54 191.779 C 355.595 186.672 375.276 180.422 392.836 175.566 C 398.816 169.572 412.899 157.472 420.992 154.089 C 427.689 151.29 434.525 150.995 439.272 152.562 C 443.276 153.884 445.66 157.238 448.412 160.959 C 451.625 165.301 455.433 171.697 456.85 177.751 C 458.287 183.895 458.555 190.961 456.85 197.597 C 454.96 204.951 450.7 214.29 444.897 219.733 C 438.882 225.374 428.618 228.735 420.992 230.419 C 414.154 231.929 409.753 231.005 401.306 230.419 C 397.25 230.138 391.447 229.222 385.219 228.175 C 373.948 230.979 362.324 233.391 354.377 233.911 C 362.592 238.82 375.543 245.217 380.916 250.265 C 387.069 256.043 391.017 261.597 393.572 267.82 C 395.947 273.606 397.316 281.215 396.384 286.14 C 395.599 290.285 393.376 294.073 390.056 296.063 C 386.127 298.417 377.899 298.98 373.182 297.589 C 368.928 296.335 365.683 292.5 362.636 289.193 C 359.59 285.886 357.945 280.145 354.902 277.744 C 352.217 275.624 346.905 272.803 345.762 274.69 C 343.989 277.618 354.638 298.834 354.199 304.459 C 354.094 305.807 353.814 306.722 353.343 307.454 C 356.364 307.556 362.354 308.743 364.361 310.518 C 366.046 312.008 364.364 314.626 366.47 316.624 C 370.359 320.313 386.421 321.991 392.484 327.31 C 397.683 331.871 400.698 338.583 402.328 344.866 C 403.934 351.061 403.831 359.806 402.328 364.712 C 401.146 368.565 399.013 371.199 396 373.108 C 392.519 375.314 387.256 377.015 381.938 376.162 C 375.213 375.083 362.933 369.958 358.736 363.949 C 355.007 358.609 355.719 347.557 355.924 343.34 C 356.038 340.99 357.89 340.469 357.33 338.76 C 356.47 336.137 349.378 333.569 347.486 329.6 C 345.529 325.492 345.315 317.911 346.081 314.334 C 346.288 313.365 346.673 312.527 347.137 311.795 C 343.329 313.609 338.093 315.234 333.81 314.381 C 326.903 313.008 316.839 297.786 312.014 299.116 C 311.449 299.272 310.929 299.593 310.45 300.047 C 310.593 301.891 310.579 303.681 309.958 305.209 C 308.982 307.615 307.561 310.162 305.789 312.449 C 305.49 313.931 305.228 315.373 304.983 316.672 C 303.679 323.608 303.203 331.507 304.983 339.57 C 307.045 348.916 313.784 363.536 318.342 369.339 C 321.343 373.161 325.255 372.645 327.482 375.445 C 329.707 378.244 329.267 382.901 331.701 386.132 C 334.53 389.888 342.041 393.464 344.356 396.055 C 345.711 397.573 345.368 398.56 346.465 399.872 C 347.9 401.585 350.285 402.216 352.793 405.214 C 356.887 410.11 365.618 421.908 368.261 429.639 C 370.444 436.026 371.46 441.43 369.667 447.959 C 367.406 456.192 360.096 469.445 352.089 474.675 C 343.981 479.971 329.183 480.916 321.154 479.255 C 314.805 477.941 311 474.347 306.389 469.331 C 300.77 463.219 294.184 451.781 290.921 443.38 C 288.081 436.065 287.223 431.013 286.703 422.007 C 285.993 409.729 290.549 385.271 289.515 374.683 C 288.872 368.095 285.781 365.717 285.297 360.944 C 284.801 356.057 287.368 349.578 286.703 345.677 C 286.195 342.692 284.777 340.814 283.187 338.808 C 281.531 336.718 278.294 335.179 276.859 333.464 C 275.762 332.154 275.814 330.902 274.751 329.648 C 273.43 328.093 272.322 326.044 269.125 325.068 C 265.185 323.865 256.285 322.905 248.571 323.421 C 243.89 327.01 239.091 330.671 234.729 331.925 C 232.063 332.692 229.582 333.284 227.121 333.625 C 225.68 335.362 224.432 337.336 223.425 339.57 C 219.264 348.808 220.466 370.568 220.613 379.262 C 220.7 384.421 222.645 386.264 222.019 389.948 C 221.31 394.116 219.636 399.798 215.692 402.925 C 215.099 403.394 214.385 403.842 213.577 404.266 C 213.012 404.734 212.444 405.161 211.884 405.542 C 208.106 408.11 202.582 409.062 198.065 408.62 C 195.532 408.968 193.296 409.115 191.786 409.031 C 188.664 408.857 187.093 408.784 185.459 405.978 C 184.782 404.816 184.12 403.095 183.517 400.988 C 180.277 395.032 178.487 382.983 178.839 377.3 C 179.069 373.594 180.646 370.637 182.197 368.496 C 186.2 353.871 199.782 331.968 198.114 326.595 C 198.068 326.445 198.015 326.306 197.956 326.172 C 196.794 325.556 195.613 324.91 194.422 324.237 C 192.855 324.193 190.953 324.577 188.974 325.068 C 181.366 326.953 161.909 337.626 154.523 345.677 C 148.666 352.06 146.756 357.132 144.679 367.05 C 141.658 381.485 147.3 414.339 143.273 428.113 C 140.504 437.587 136.184 443.438 129.914 447.196 C 123.134 451.26 111.387 452.013 103.198 450.249 C 95.258 448.539 86.227 442.777 81.402 437.273 C 77.259 432.545 75.56 426.485 74.371 420.48 C 73.147 414.298 72.661 406.242 74.371 400.634 C 75.953 395.447 78.312 392.758 83.511 387.658 C 92.029 379.304 119.058 365.656 126.4 356.364 C 130.969 350.578 130.255 343.126 132.024 340.334 C 132.994 338.804 133.531 339.468 134.836 338.044 C 137.4 335.248 142.463 326.665 146.788 322.014 C 150.929 317.565 158.939 314.095 160.147 310.566 C 160.978 308.14 160.717 304.405 158.038 303.695 C 151.925 302.076 117.732 323.733 108.822 323.542 C 104.754 323.453 103.048 321.979 101.502 319.029 C 101.488 319.212 101.469 319.393 101.446 319.57 C 101.014 322.797 99.004 326.695 95.118 329.493 C 89.281 333.695 71.029 339.207 65.587 338.652 C 62.748 338.363 61.733 336.753 60.666 334.836 C 59.44 332.633 58.759 328.191 59.26 325.676 C 59.697 323.487 60.579 322.243 62.775 320.333 C 66.458 317.132 76.151 311.015 82.462 309.647 C 88.05 308.436 95.603 308.869 98.633 311.174 C 98.966 311.428 99.271 311.723 99.545 312.052 C 98.534 304.957 98.644 294.957 99.682 290.72 C 100.573 287.08 101.366 286.129 104.604 283.85 C 110.436 279.744 132.402 275.631 137.648 271.637 C 140.349 269.582 139.567 267.17 141.164 265.531 C 142.817 263.833 145.987 263.938 147.492 261.714 C 149.043 259.425 150.688 254.501 150.545 251.101 C 150.483 250.636 150.421 250.169 150.358 249.701 C 150.341 249.633 150.323 249.566 150.304 249.501 C 149.405 246.462 145.948 243.877 142.571 242.631 C 138.548 241.149 133.627 242.325 127.102 242.631 C 118.03 243.058 101.868 247.873 91.948 245.685 C 83.323 243.783 73.801 238.539 70.152 232.709 C 67.023 227.71 67.656 220.586 68.746 214.39 C 69.844 208.148 71.986 199.331 76.662 194.816 C 75.997 194.808 75.347 194.784 74.728 194.747 C 70.801 194.513 65.719 190.326 62.775 191.694 C 59.925 193.018 60.442 199.677 57.151 202.38 C 53.036 205.757 42.551 209.158 38.168 208.486 C 35.115 208.018 33.256 205.093 31.84 203.144 C 30.635 201.484 31.066 199.685 29.73 197.8 C 27.888 195.199 21.873 193.204 20.59 189.403 C 19.191 185.254 20.436 177.097 22.699 173.375 C 24.728 170.038 27.355 168.227 32.542 167.267 C 41.45 165.621 66.623 169.006 76.134 171.848 C 82.078 173.624 85.969 175.676 88.087 178.717 C 89.849 181.25 89.994 185.363 89.493 187.877 C 89.329 188.695 89.068 189.483 88.704 190.211 C 94.142 189.606 100.332 189.993 106.01 190.728 C 108.787 191.087 112.001 192.092 115.38 193.406 C 117.999 193.598 120.333 193.949 122.076 194.513 C 125.78 195.712 128.419 197.715 130.537 200.156 C 136.17 202.721 141.11 204.73 143.976 204.467 C 145.984 204.282 147.607 203.506 148.71 202.402 C 149.157 200.659 149.691 199.198 150.316 197.919 C 150.056 193.933 147.097 187.122 141.164 183.095 C 129.92 175.459 89.707 173.741 76.481 167.828 C 68.599 164.305 65.122 162.668 61.715 156.379 C 57.325 148.273 54.555 129.526 56.091 119.741 C 57.342 111.769 61.811 104.291 66.637 100.658 C 71.127 97.279 76.835 96.837 83.511 97.605 C 92.255 98.612 105.794 101.344 115.15 109.818 C 126.516 120.112 132.071 149.886 143.976 160.195 C 154.227 169.073 174.142 175.295 179.833 172.408 C 183.779 170.408 183.498 162.298 182.647 156.379 C 182.639 156.326 182.631 156.274 182.623 156.222 C 178.67 155.071 175.449 152.601 173.335 148.143 C 171.124 143.481 170.172 133.364 170.081 124.931 C 168.934 116.899 168.709 107.81 169.99 102.948 C 171.123 98.65 172.776 96.638 176.318 94.552 C 181.371 91.576 194.493 88.511 200.223 89.972 C 204.542 91.074 207.385 93.332 209.364 98.368 C 210.645 101.627 210.765 108.072 210.602 114.931 C 212.263 123.48 212.193 134.48 211.356 140.156 C 212.01 141.29 212.737 141.378 214.285 141.876 C 217.806 143.012 229.56 143.536 232.566 141.876 C 234.313 140.911 233.845 138.707 234.675 137.297 C 235.49 135.913 236.217 135.362 237.487 133.48 C 239.606 130.341 242.877 123.048 246.627 118.978 C 250.377 114.906 255.217 116.053 259.985 109.054 C 268.95 95.896 279.873 43.388 290.218 30.434 C 296.222 22.918 302.283 22.773 308.499 21.275 Z M 175.461 62.845 C 180.381 61.845 192.689 63.039 195.851 65.899 C 198.002 67.844 197.763 71.576 197.258 74.294 C 196.719 77.185 195.434 80.605 192.335 82.691 C 187.867 85.699 173.911 87.474 169.837 87.271 C 167.853 87.172 167.288 86.905 166.321 85.744 C 165.002 84.16 163.685 80.001 163.509 77.348 C 163.349 74.938 164.038 72.031 164.915 70.478 C 165.602 69.263 166.458 69.134 167.727 68.188 C 169.59 66.8 171.901 63.569 175.461 62.845 Z M 215.383 407.403 C 218.065 407.104 224.045 405.757 227.336 408.929 C 232.023 413.449 238.724 432.691 237.179 438.698 C 236.085 442.952 229.646 445.413 226.633 445.568 C 224.195 445.693 222.336 444.606 220.305 441.751 C 216.792 436.815 210.748 417.7 210.462 412.746 C 210.334 410.535 211.047 409.82 211.869 408.929 C 212.689 408.039 213.696 407.591 215.383 407.403 Z M 437.251 233.413 C 443.162 233.174 471.289 234.609 477.327 241.046 C 481.782 245.795 479.496 257.247 478.733 261.654 C 478.263 264.369 477.919 265.534 475.921 266.998 C 472.743 269.326 463.43 272.463 458.344 271.577 C 453.721 270.772 448.966 266.541 446.392 263.182 C 444.175 260.29 445.065 255.771 442.876 253.258 C 440.529 250.565 433.869 250.931 432.33 247.915 C 430.769 244.858 432.412 237.107 433.735 234.94 C 434.568 233.575 434.965 233.505 437.251 233.413 Z" style="stroke-width: 10px; stroke-linejoin: round; fill: rgb(0, 59, 114);"/>
</svg>